<?xml version="1.0" standalone="no"?>
<!DOCTYPE svg PUBLIC "-//W3C//DTD SVG 20010904//EN"
 "http://www.w3.org/TR/2001/REC-SVG-20010904/DTD/svg10.dtd">
<svg version="1.0" xmlns="http://www.w3.org/2000/svg"
 width="260.000000pt" height="260.000000pt" viewBox="0 0 260.000000 260.000000"
 preserveAspectRatio="xMidYMid meet">
<metadata>
Created by potrace 1.11, written by Peter Selinger 2001-2013
</metadata>
<g transform="translate(0.000000,260.000000) scale(0.100000,-0.100000)"
fill="#000000" stroke="none">
<path d="M1158 2369 c-346 -68 -586 -367 -612 -762 -3 -43 -7 -81 -10 -85 -4
-7 -23 -7 -92 -3 -8 1 -11 78 -10 259 1 141 0 262 -2 269 -5 17 -208 18 -214
1 -2 -7 -3 -137 -2 -290 1 -317 6 -342 77 -403 50 -43 90 -55 185 -55 39 0 72
-3 73 -7 0 -5 2 -17 5 -28 5 -23 9 -51 19 -120 20 -140 91 -367 156 -498 141
-282 333 -427 569 -428 278 0 502 209 640 596 28 81 66 220 76 285 2 14 6 34
9 45 2 11 7 40 10 65 3 25 7 54 9 65 3 18 13 21 98 26 99 6 138 20 185 71 52
55 56 81 57 395 l1 292 -106 0 c-94 1 -107 -1 -111 -17 -2 -9 -3 -131 -3 -269
1 -172 -2 -253 -9 -254 -55 -5 -88 -3 -93 4 -3 5 -7 40 -9 78 -24 416 -299
741 -658 774 -117 11 -154 10 -238 -6z m-194 -793 c94 -24 183 -47 199 -50 26
-6 27 -8 27 -80 l0 -73 -175 -67 c-245 -94 -241 -98 -250 219 -2 84 0 95 17
95 6 0 88 -20 182 -44z m870 -51 c-1 -181 -10 -243 -35 -270 -13 -13 -28 -25
-32 -25 -5 0 -87 32 -183 72 l-174 72 0 71 0 72 193 50 c105 28 201 50 212 49
18 -1 20 -8 19 -91z m-291 -436 c162 -65 227 -96 227 -107 0 -46 -97 -269
-151 -349 -125 -182 -299 -243 -465 -162 -118 56 -231 226 -299 447 -22 68
-21 80 5 88 21 6 69 25 240 94 107 43 200 78 205 79 6 1 112 -40 238 -90z"/>
<path d="M1086 861 c-1 -3 -2 -28 -2 -55 l1 -48 215 0 215 -1 1 55 1 55 -214
0 c-118 0 -215 -3 -217 -6z"/>
</g>
</svg>
