<?xml version="1.0" standalone="no"?>
<!DOCTYPE svg PUBLIC "-//W3C//DTD SVG 20010904//EN"
 "http://www.w3.org/TR/2001/REC-SVG-20010904/DTD/svg10.dtd">
<svg version="1.0" xmlns="http://www.w3.org/2000/svg"
 width="512.000000pt" height="512.000000pt" viewBox="0 0 512.000000 512.000000"
 preserveAspectRatio="xMidYMid meet">
<metadata>
Created by potrace 1.11, written by Peter Selinger 2001-2013
</metadata>
<g transform="translate(0.000000,512.000000) scale(0.100000,-0.100000)"
fill="#000000" stroke="none">
<path d="M3225 4713 c-170 -15 -387 -69 -541 -134 -399 -172 -693 -448 -889
-838 l-44 -89 -90 -1 c-495 -5 -929 -430 -944 -925 l-2 -79 -88 -18 c-187 -37
-364 -152 -473 -305 -158 -222 -195 -485 -102 -740 79 -220 265 -398 500 -477
l93 -32 1140 -2 1140 -2 56 -63 56 -63 -26 -39 c-36 -55 -36 -129 2 -183 37
-52 236 -272 267 -295 38 -28 93 -33 144 -14 39 15 116 99 654 709 335 381
630 717 655 747 285 349 426 828 376 1278 -91 833 -739 1478 -1568 1562 -97 9
-227 11 -316 3z m290 -1385 c72 -25 117 -52 169 -104 148 -145 178 -377 73
-557 -23 -39 -145 -163 -152 -155 -2 2 -26 37 -53 78 -125 188 -312 326 -535
395 -48 15 -87 33 -87 40 0 7 16 44 35 83 100 200 336 294 550 220z m-1665
-24 c175 -41 340 -172 418 -334 23 -47 48 -111 57 -144 20 -79 44 -117 91
-144 44 -25 67 -25 214 3 203 38 413 -29 565 -180 223 -223 253 -574 71 -828
-84 -119 -188 -195 -336 -249 l-65 -23 -1055 -3 c-926 -2 -1064 -1 -1125 13
-229 51 -387 285 -347 516 17 98 56 173 127 245 106 108 223 148 395 138 89
-6 97 -5 129 17 19 13 44 37 55 52 23 32 25 66 11 262 -9 132 6 210 63 325 49
101 178 231 274 278 140 68 315 90 458 56z"/>
</g>
</svg>
