<?xml version="1.0" standalone="no"?>
<!DOCTYPE svg PUBLIC "-//W3C//DTD SVG 20010904//EN"
 "http://www.w3.org/TR/2001/REC-SVG-20010904/DTD/svg10.dtd">
<svg version="1.0" xmlns="http://www.w3.org/2000/svg"
 width="100.000000pt" height="100.000000pt" viewBox="0 0 100.000000 100.000000"
 preserveAspectRatio="xMidYMid meet">
<metadata>
Created by potrace 1.11, written by Peter Selinger 2001-2013
</metadata>
<g transform="translate(0.000000,100.000000) scale(0.100000,-0.100000)"
fill="#000000" stroke="none">
<path d="M700 990 c-8 -5 -34 -14 -58 -20 -50 -13 -113 -66 -136 -115 l-17
-35 -92 0 c-105 0 -117 -6 -117 -60 0 -40 14 -60 42 -60 14 0 18 -8 18 -36 0
-27 5 -37 20 -41 19 -5 20 -14 20 -204 0 -172 -2 -199 -15 -199 -9 0 -18 -8
-22 -17 -3 -10 -37 -49 -75 -87 -65 -65 -76 -85 -52 -93 6 -2 45 31 87 73 l76
76 3 -83 c2 -67 6 -84 18 -84 12 0 16 17 18 84 l3 83 76 -76 c42 -42 81 -75
87 -73 24 8 13 29 -52 93 -38 38 -72 77 -75 87 -4 9 -13 17 -22 17 -13 0 -15
27 -15 199 0 190 1 199 20 204 15 4 20 14 20 41 0 48 24 48 49 -1 31 -61 95
-111 153 -120 18 -3 38 -9 45 -15 6 -5 29 -8 50 -6 l38 3 0 235 0 235 -40 2
c-22 1 -47 -2 -55 -7z m60 -230 c0 -127 -4 -200 -10 -200 -6 0 -10 73 -10 200
0 127 4 200 10 200 6 0 10 -73 10 -200z m-60 0 c0 -175 -1 -180 -20 -180 -27
0 -90 32 -111 56 -46 53 -60 128 -34 190 21 51 42 73 90 95 78 36 75 42 75
-161z m-220 0 c0 -18 -7 -20 -80 -20 -73 0 -80 2 -80 20 0 18 7 20 80 20 73 0
80 -2 80 -20z m-60 -80 c0 -13 -7 -20 -20 -20 -13 0 -20 7 -20 20 0 13 7 20
20 20 13 0 20 -7 20 -20z"/>
</g>
</svg>
